#N canvas 163 48 606 486 10;
#N canvas 291 116 834 511 main 0;
#N canvas 954 87 470 489 lungs 0;
#X obj 158 216 delay;
#X obj 22 37 inlet;
#X floatatom 95 69 5 0 0 0 - - -;
#X floatatom 185 68 5 0 0 0 - - -;
#X text 73 11 lung capacity;
#X text 175 10 flow rate;
#X obj 185 101 t b f;
#X obj 185 127 /;
#X obj 22 281 line~;
#X obj 22 442 outlet~;
#X obj 185 156 * 1000;
#X floatatom 185 188 5 0 0 0 - - -;
#X text 223 187 <= duration (msec);
#X obj 22 311 *~;
#X obj 270 216 swap 1000;
#X obj 270 243 /;
#X text 295 470 period (Hz);
#X text 20 466 energy;
#X text 9 10 vocalise;
#X floatatom 270 269 5 0 0 0 - - -;
#X msg 158 240 0 20;
#X obj 89 442 s~ \$0-energy;
#X msg 22 242 1 20;
#X obj 68 279 rmstodb;
#X obj 95 39 r \$0-lc;
#X obj 185 39 r \$0-fr;
#X obj 299 447 s \$0-mf;
#X obj 350 447 s \$0-sr;
#X text 284 290 mod freq mult;
#X obj 298 311 r \$0-mfm;
#X floatatom 298 339 5 0 0 0 - - -;
#X floatatom 298 422 5 0 0 0 - - -;
#X obj 298 394 *;
#X obj 298 367 t b f;
#X obj 270 166 max 1;
#X connect 0 0 20 0;
#X connect 1 0 22 0;
#X connect 1 0 0 0;
#X connect 2 0 7 0;
#X connect 3 0 6 0;
#X connect 3 0 23 0;
#X connect 6 0 7 0;
#X connect 6 1 7 1;
#X connect 7 0 10 0;
#X connect 8 0 13 0;
#X connect 10 0 11 0;
#X connect 11 0 0 1;
#X connect 11 0 34 0;
#X connect 13 0 9 0;
#X connect 13 0 21 0;
#X connect 14 0 15 0;
#X connect 14 1 15 1;
#X connect 15 0 19 0;
#X connect 19 0 27 0;
#X connect 19 0 32 0;
#X connect 20 0 8 0;
#X connect 22 0 8 0;
#X connect 23 0 13 1;
#X connect 24 0 2 0;
#X connect 25 0 3 0;
#X connect 29 0 30 0;
#X connect 30 0 33 0;
#X connect 31 0 26 0;
#X connect 32 0 31 0;
#X connect 33 0 32 0;
#X connect 33 1 32 1;
#X connect 34 0 14 0;
#X restore 627 260 pd lungs;
#N canvas 331 30 943 893 larynx 0;
#X obj 80 843 outlet~;
#X obj 78 49 inlet~;
#X text 77 19 energy;
#X obj 79 787 *~;
#X floatatom 167 77 5 0 0 0 - - -;
#X floatatom 608 79 5 0 0 0 - - -;
#X floatatom 243 78 5 0 0 0 - - -;
#X text 594 23 aspiration;
#X obj 245 244 cos~;
#X obj 244 197 phasor~;
#X obj 244 168 sig~;
#X obj 167 725 +~;
#X obj 167 698 *~;
#X obj 259 644 noise~;
#X obj 258 698 *~;
#X obj 608 114 swap 1;
#X obj 608 140 -;
#X obj 273 670 sig~;
#X obj 183 671 sig~;
#X floatatom 339 78 5 0 0 0 - - -;
#X text 329 20 FM depth;
#X floatatom 419 78 5 0 0 0 - - -;
#X text 409 20 AM depth;
#X obj 246 333 *~;
#X obj 168 404 +~;
#X obj 167 113 sig~;
#X obj 289 275 +~ 1;
#X obj 288 303 *~ 0.5;
#X obj 231 361 *~;
#X obj 283 142 bng 15 250 50 0 empty empty empty 17 7 0 10 -262144
-1 -1;
#X obj 284 116 threshold~ 0.0001 1 0.0001 1;
#X obj 419 141 swap 1;
#X obj 419 169 -;
#X obj 288 334 *~;
#X obj 289 363 +~;
#X obj 171 756 *~;
#X obj 168 502 -~ 0.5;
#X obj 167 604 cos~;
#X obj 167 437 phasor~;
#X obj 167 570 clip~ -0.5 0.5;
#X obj 167 468 sqrt~;
#X obj 168 536 *~ 10;
#X floatatom 513 82 5 0 0 0 - - -;
#X text 491 23 voice quality;
#X text 144 19 fundamental;
#X text 221 19 modulation freq;
#X obj 432 428 phasor~;
#X obj 433 491 -~ 0.5;
#X obj 432 593 cos~;
#X obj 432 559 clip~ -0.5 0.5;
#X obj 432 457 sqrt~;
#X obj 433 525 *~ 10;
#X obj 588 291 quantize~ 20;
#X obj 166 637 +~;
#X obj 79 815 lop~ 10000;
#X msg 606 205 1000;
#X obj 606 180 loadbang;
#X obj 244 142 -;
#X obj 244 117 swap 0;
#X obj 244 220 sqrt~;
#X msg 283 168 0.3;
#X obj 167 47 r \$0-ff;
#X obj 243 47 r \$0-mf;
#X obj 339 47 r \$0-fmd;
#X obj 419 47 r \$0-amd;
#X obj 513 49 r \$0-vq;
#X obj 608 49 r \$0-asp;
#X floatatom 696 78 5 0 0 0 - - -;
#X floatatom 788 76 5 0 0 0 - - -;
#X text 682 22 quantisation;
#X obj 696 48 r \$0-quant;
#X text 774 21 pitch difference;
#X obj 788 46 r \$0-pdiff;
#X obj 434 395 *~ 1;
#X obj 762 265 > 1;
#X floatatom 761 294 5 0 0 0 - - -;
#X obj 433 632 *~;
#X connect 1 0 30 0;
#X connect 1 0 3 0;
#X connect 3 0 54 0;
#X connect 4 0 25 0;
#X connect 5 0 15 0;
#X connect 5 0 17 0;
#X connect 6 0 58 0;
#X connect 8 0 26 0;
#X connect 8 0 23 0;
#X connect 9 0 59 0;
#X connect 10 0 9 0;
#X connect 11 0 35 0;
#X connect 12 0 11 0;
#X connect 13 0 14 0;
#X connect 14 0 11 1;
#X connect 15 0 16 0;
#X connect 15 1 16 1;
#X connect 16 0 18 0;
#X connect 17 0 14 1;
#X connect 18 0 12 1;
#X connect 19 0 23 1;
#X connect 21 0 31 0;
#X connect 21 0 33 1;
#X connect 23 0 52 0;
#X connect 24 0 38 0;
#X connect 24 0 73 0;
#X connect 25 0 28 0;
#X connect 25 0 24 0;
#X connect 26 0 27 0;
#X connect 27 0 33 0;
#X connect 28 0 24 1;
#X connect 29 0 60 0;
#X connect 30 0 29 0;
#X connect 31 0 32 0;
#X connect 31 1 32 1;
#X connect 32 0 34 1;
#X connect 33 0 34 0;
#X connect 34 0 35 1;
#X connect 35 0 3 1;
#X connect 36 0 41 0;
#X connect 37 0 53 0;
#X connect 38 0 40 0;
#X connect 39 0 37 0;
#X connect 40 0 36 0;
#X connect 41 0 39 0;
#X connect 42 0 41 1;
#X connect 42 0 51 1;
#X connect 46 0 50 0;
#X connect 47 0 51 0;
#X connect 48 0 76 0;
#X connect 49 0 48 0;
#X connect 50 0 47 0;
#X connect 51 0 49 0;
#X connect 52 0 28 1;
#X connect 53 0 12 0;
#X connect 54 0 0 0;
#X connect 56 0 55 0;
#X connect 57 0 10 0;
#X connect 58 0 57 0;
#X connect 58 1 57 1;
#X connect 59 0 8 0;
#X connect 60 0 9 1;
#X connect 61 0 4 0;
#X connect 62 0 6 0;
#X connect 63 0 19 0;
#X connect 64 0 21 0;
#X connect 65 0 42 0;
#X connect 66 0 5 0;
#X connect 67 0 52 0;
#X connect 68 0 73 1;
#X connect 68 0 74 0;
#X connect 70 0 67 0;
#X connect 72 0 68 0;
#X connect 73 0 46 0;
#X connect 74 0 75 0;
#X connect 75 0 76 1;
#X connect 76 0 53 1;
#X restore 627 293 pd larynx;
#N canvas 270 56 830 897 vocal-tract 0;
#X obj 13 39 inlet~;
#X floatatom 202 65 5 0 0 0 - - -;
#X text 0 11 from larynx;
#X text 158 10 vocal tract length (cm);
#X obj 202 92 * 4;
#X obj 202 120 swap 34000;
#X obj 202 147 /;
#X floatatom 202 273 5 0 0 0 - - -;
#X obj 202 407 * 3;
#X obj 277 407 * 5;
#X obj 13 704 vcf~;
#X obj 70 703 vcf~;
#X obj 129 702 vcf~;
#X obj 126 442 sig~;
#X obj 161 441 / 50;
#X obj 202 442 sig~;
#X obj 237 441 / 50;
#X obj 277 442 sig~;
#X obj 312 441 / 50;
#X floatatom 376 175 5 0 0 0 - - -;
#X text 338 10 mouth opening (0-1);
#X obj 126 407 * 1;
#X obj 376 303 t b f;
#X floatatom 419 278 5 0 0 0 - - -;
#X obj 419 303 t b f;
#X floatatom 463 278 5 0 0 0 - - -;
#X obj 463 303 t b f;
#X obj 199 776 *~;
#X obj 199 859 outlet~;
#X obj 214 745 sig~;
#X obj 419 253 + 2;
#X obj 463 253 + 4;
#X floatatom 566 69 5 0 0 0 - - -;
#X obj 567 268 cos~;
#X obj 566 237 phasor~;
#X obj 566 208 sig~;
#X floatatom 664 69 5 0 0 0 - - -;
#X msg 605 208 0.5;
#X obj 568 357 *~;
#X obj 568 299 +~ 1;
#X obj 567 327 *~ 0.5;
#X obj 605 180 bng 15 250 50 0 empty empty empty 17 7 0 10 -262144
-1 -1;
#X obj 605 150 threshold~ 0.0001 1 0.0001 1;
#X text 652 11 depth (0-1);
#X obj 569 387 snapshot~;
#X obj 605 356 bang~;
#X text 532 10 syllabic rate (Hz);
#X obj 423 84 t b f;
#X floatatom 377 62 5 0 0 0 - - -;
#X obj 376 117 +;
#X obj 376 146 clip 0 1;
#X obj 604 110 r~ \$0-energy;
#X text 264 804 <= mouth radiation;
#X obj 199 831 lop~ 10000;
#X obj 202 36 r \$0-vtl;
#X obj 566 38 r \$0-sr;
#X obj 664 38 r \$0-dmc;
#X obj 85 157 +~ 1;
#X obj 14 194 *~;
#X floatatom 85 70 5 0 0 0 - - -;
#X obj 85 129 osc~ 35;
#X obj 85 99 sig~;
#X obj 85 38 r \$0-umf;
#X text 85 14 uvula;
#X obj 199 806 rzero~ 1;
#X obj 376 36 r \$0-mco;
#X connect 0 0 58 0;
#X connect 1 0 4 0;
#X connect 4 0 5 0;
#X connect 5 0 6 0;
#X connect 5 1 6 1;
#X connect 6 0 7 0;
#X connect 7 0 8 0;
#X connect 7 0 9 0;
#X connect 7 0 21 0;
#X connect 8 0 15 0;
#X connect 8 0 16 0;
#X connect 9 0 17 0;
#X connect 9 0 18 0;
#X connect 10 0 27 0;
#X connect 11 0 27 0;
#X connect 12 0 27 0;
#X connect 13 0 10 1;
#X connect 14 0 10 2;
#X connect 15 0 11 1;
#X connect 16 0 11 2;
#X connect 17 0 12 1;
#X connect 18 0 12 2;
#X connect 19 0 29 0;
#X connect 19 0 22 0;
#X connect 19 0 30 0;
#X connect 19 0 31 0;
#X connect 21 0 13 0;
#X connect 21 0 14 0;
#X connect 22 0 21 0;
#X connect 22 1 21 1;
#X connect 23 0 24 0;
#X connect 24 0 8 0;
#X connect 24 1 8 1;
#X connect 25 0 26 0;
#X connect 26 0 9 0;
#X connect 26 1 9 1;
#X connect 27 0 64 0;
#X connect 29 0 27 1;
#X connect 30 0 23 0;
#X connect 31 0 25 0;
#X connect 32 0 35 0;
#X connect 33 0 39 0;
#X connect 34 0 33 0;
#X connect 35 0 34 0;
#X connect 36 0 38 1;
#X connect 37 0 34 1;
#X connect 38 0 44 0;
#X connect 39 0 40 0;
#X connect 40 0 38 0;
#X connect 41 0 37 0;
#X connect 42 0 41 0;
#X connect 44 0 47 0;
#X connect 45 0 44 0;
#X connect 47 0 49 0;
#X connect 47 1 49 1;
#X connect 48 0 49 0;
#X connect 49 0 50 0;
#X connect 50 0 19 0;
#X connect 51 0 42 0;
#X connect 53 0 28 0;
#X connect 54 0 1 0;
#X connect 55 0 32 0;
#X connect 56 0 36 0;
#X connect 57 0 58 1;
#X connect 58 0 12 0;
#X connect 58 0 11 0;
#X connect 58 0 10 0;
#X connect 59 0 61 0;
#X connect 60 0 57 0;
#X connect 61 0 60 0;
#X connect 62 0 59 0;
#X connect 64 0 53 0;
#X connect 65 0 48 0;
#X restore 627 325 pd vocal-tract;
#N canvas 938 55 617 768 body 0;
#X floatatom 100 18 5 0 0 0 - - -;
#X floatatom 204 177 5 0 0 0 - - -;
#X obj 204 123 pow -0.4;
#X obj 204 149 * 1000;
#X obj 204 204 s \$0-ff;
#X text 81 -31 body mass (kg);
#X text 281 192 (= bm^-0.4);
#X floatatom 148 317 5 0 0 0 - - -;
#X obj 148 232 /;
#X obj 148 152 t f b;
#X obj 148 124 log;
#X obj 163 202 log;
#X msg 163 178 10;
#X floatatom -42 187 5 0 0 0 - - -;
#X text 243 175 <= fundamental frequency (Hz);
#X text 353 446 <= vocal tract length (cm);
#X text -1 185 <= lung capacity (l);
#X obj -42 214 s \$0-lc;
#X obj -42 75 pow 1.06;
#X obj -42 102 * 53.5;
#X floatatom -42 130 5 0 0 0 - - -;
#X text 2 129 <= lung capacity (ml);
#X obj -42 159 / 1000;
#X text 25 145 (= 53.5*bm^1.06);
#X obj 148 261 * 11.53;
#X obj 148 288 + 3.15;
#X obj 35 324 pow -0.26;
#X obj 35 351 * 0.84;
#X floatatom 35 378 5 0 0 0 - - -;
#X text 77 377 <= breathing rate (Hz);
#X text 97 393 (= 0.84*BM^-0.26);
#X floatatom 35 460 5 0 0 0 - - -;
#X obj 35 433 /;
#X obj 35 406 swap 1;
#X text 72 459 <= breathing cycle (secs);
#X floatatom 35 511 5 0 0 0 - - -;
#X text 72 510 <= exhalation duration (secs);
#X obj 35 484 / 2;
#X obj 35 621 /;
#X obj 35 589 t b f;
#X floatatom 35 654 5 0 0 0 - - -;
#X text 75 653 <= airflow (l/sec);
#X obj -25 267 * 0.419;
#X floatatom -25 292 5 0 0 0 - - -;
#X text 12 292 <= volume used (l);
#X floatatom 35 563 5 0 0 0 - - -;
#X obj 35 536 * 2.625;
#X text 72 562 <= vocalisation duration (secs);
#X obj 100 -9 r \$0-bm;
#X obj 35 682 s \$0-bfr;
#X text 94 681 <= base flow rate;
#X floatatom 360 23 5 0 0 0 - - -;
#X text 356 -26 body type;
#X obj 360 -4 r \$0-btype;
#X obj 360 49 route 0 1;
#X msg 360 79 0;
#X obj 360 107 s \$0-pdiff;
#X obj 430 78 bng 15 250 50 0 empty empty empty 17 7 0 10 -262144 -1
-1;
#X obj 430 106 s \$0-val;
#X msg 452 155 35;
#X obj 452 183 s \$0-umf;
#X floatatom 327 648 5 0 0 0 - - -;
#X obj 327 680 s \$0-fr;
#X floatatom 327 568 5 0 0 0 - - -;
#X obj 327 620 *;
#X obj 327 541 r \$0-frm;
#X text 379 678 <= flow rate;
#X text 383 539 <= flow rate multiplier;
#X obj 327 593 t b f;
#X floatatom 295 393 5 0 0 0 - - -;
#X floatatom 295 313 5 0 0 0 - - -;
#X obj 295 365 *;
#X obj 295 338 t b f;
#X obj 295 286 r \$0-vtlm;
#X text 355 284 <= vtl multiplier;
#X obj 295 447 s \$0-vtl;
#X text 372 466 (= vtlm * 3.15+11.53*log(bm));
#X obj 295 420 max 0.1;
#X connect 0 0 2 0;
#X connect 0 0 10 0;
#X connect 0 0 18 0;
#X connect 0 0 26 0;
#X connect 1 0 4 0;
#X connect 2 0 3 0;
#X connect 3 0 1 0;
#X connect 7 0 71 0;
#X connect 8 0 24 0;
#X connect 9 0 8 0;
#X connect 9 1 12 0;
#X connect 10 0 9 0;
#X connect 11 0 8 1;
#X connect 12 0 11 0;
#X connect 13 0 17 0;
#X connect 13 0 42 0;
#X connect 18 0 19 0;
#X connect 19 0 20 0;
#X connect 20 0 22 0;
#X connect 22 0 13 0;
#X connect 24 0 25 0;
#X connect 25 0 7 0;
#X connect 26 0 27 0;
#X connect 27 0 28 0;
#X connect 28 0 33 0;
#X connect 31 0 37 0;
#X connect 32 0 31 0;
#X connect 33 0 32 0;
#X connect 33 1 32 1;
#X connect 35 0 46 0;
#X connect 37 0 35 0;
#X connect 38 0 40 0;
#X connect 39 0 38 0;
#X connect 39 1 38 1;
#X connect 40 0 49 0;
#X connect 40 0 64 0;
#X connect 42 0 43 0;
#X connect 43 0 38 0;
#X connect 45 0 39 0;
#X connect 46 0 45 0;
#X connect 48 0 0 0;
#X connect 51 0 54 0;
#X connect 53 0 51 0;
#X connect 54 0 55 0;
#X connect 54 1 57 0;
#X connect 54 1 59 0;
#X connect 55 0 56 0;
#X connect 55 0 60 0;
#X connect 57 0 58 0;
#X connect 59 0 60 0;
#X connect 61 0 62 0;
#X connect 63 0 68 0;
#X connect 64 0 61 0;
#X connect 65 0 63 0;
#X connect 68 0 64 0;
#X connect 68 1 64 1;
#X connect 69 0 77 0;
#X connect 70 0 72 0;
#X connect 71 0 69 0;
#X connect 72 0 71 0;
#X connect 72 1 71 1;
#X connect 73 0 70 0;
#X connect 77 0 75 0;
#X restore 631 38 pd body;
#X obj 627 229 bng 15 250 50 0 empty empty empty 17 7 0 10 -262144
-1 -1;
#X obj 400 330 soundrecorder~;
#N canvas 972 215 245 582 postproc 0;
#X obj 18 15 inlet~;
#X obj 18 142 *~;
#X obj 33 116 osc~;
#X obj 33 90 sig~;
#X floatatom 33 66 5 0 0 0 - - -;
#X obj 39 170 delwrite~ delayline 1000;
#X obj 17 282 +~;
#X obj 32 250 delread~ delayline;
#X floatatom 33 224 5 0 0 0 - - -;
#X obj 33 42 r \$0-ringmod;
#X obj 33 198 r \$0-delay;
#N canvas 1274 447 258 267 resample 0;
#X obj 76 34 r \$0-samp;
#X obj 9 11 inlet~;
#X obj 9 233 outlet~;
#X obj 76 62 route 0 1 2 3;
#X obj 76 201 block~;
#X msg 76 90 set 64 1 1;
#X msg 94 115 set 64 1 0.5;
#X msg 113 140 set 64 1 0.25;
#X msg 132 165 set 64 1 0.125;
#X connect 0 0 3 0;
#X connect 1 0 2 0;
#X connect 3 0 5 0;
#X connect 3 1 6 0;
#X connect 3 2 7 0;
#X connect 3 3 8 0;
#X connect 5 0 4 0;
#X connect 6 0 4 0;
#X connect 7 0 4 0;
#X connect 8 0 4 0;
#X restore 17 503 pd resample;
#X obj 132 284 r \$0-samp;
#X obj 17 543 outlet~;
#X obj 132 312 route 0 1 2 3;
#X obj 17 322 lop~;
#X obj 17 351 lop~;
#X obj 17 379 lop~;
#X obj 17 407 lop~;
#X obj 17 436 lop~;
#X obj 17 464 lop~;
#X msg 86 341 22050;
#X msg 86 367 11025;
#X msg 86 395 5512;
#X msg 86 419 2756;
#X connect 0 0 1 0;
#X connect 1 0 6 0;
#X connect 1 0 5 0;
#X connect 2 0 1 1;
#X connect 3 0 2 0;
#X connect 4 0 3 0;
#X connect 6 0 15 0;
#X connect 7 0 6 1;
#X connect 8 0 7 0;
#X connect 9 0 4 0;
#X connect 10 0 8 0;
#X connect 11 0 13 0;
#X connect 12 0 14 0;
#X connect 14 0 21 0;
#X connect 14 1 22 0;
#X connect 14 2 23 0;
#X connect 14 3 24 0;
#X connect 15 0 16 0;
#X connect 16 0 17 0;
#X connect 17 0 18 0;
#X connect 18 0 19 0;
#X connect 19 0 20 0;
#X connect 20 0 11 0;
#X connect 21 0 15 1;
#X connect 21 0 16 1;
#X connect 21 0 17 1;
#X connect 21 0 18 1;
#X connect 21 0 19 1;
#X connect 21 0 20 1;
#X connect 22 0 15 1;
#X connect 22 0 16 1;
#X connect 22 0 17 1;
#X connect 22 0 18 1;
#X connect 22 0 19 1;
#X connect 22 0 20 1;
#X connect 23 0 15 1;
#X connect 23 0 16 1;
#X connect 23 0 17 1;
#X connect 23 0 18 1;
#X connect 23 0 19 1;
#X connect 23 0 20 1;
#X connect 24 0 15 1;
#X connect 24 0 16 1;
#X connect 24 0 17 1;
#X connect 24 0 18 1;
#X connect 24 0 19 1;
#X connect 24 0 20 1;
#X restore 627 357 pd postproc;
#X obj 2 122 cnv 15 200 229 empty empty Body 5 12 0 14 -204800 -66577
0;
#X obj 1 2 cnv 15 598 39 empty empty Mammalian_Vocalisation 5 16 0
22 -257985 -66577 0;
#X obj 76 162 vsl 15 128 0.1 5000 1 0 \$0-bm \$0-bm BODY_MASS -60 50
0 10 -262144 -1 -1 3516 1;
#X text 95 192 <= lion;
#X text 95 156 <= elephant;
#X text 95 277 <= mouse;
#X text 95 212 <= big dog;
#X text 95 174 <= cow;
#X text 95 236 <= small dog;
#X text 95 203 <= chimp;
#X text 95 245 <= rabbit;
#X floatatom 18 224 5 0 0 0 - #0-bm -;
#X text 55 224 kg;
#N canvas 836 23 532 919 initialise 0;
#X msg 89 61 0;
#X msg 89 9 2;
#X obj 89 32 s \$0-bm;
#X obj -142 -52 loadbang;
#X obj -142 -4 r \$0-init;
#X obj -142 -27 s \$0-init;
#X obj -142 22 bng 15 250 50 0 empty empty empty 17 7 0 10 -262144
-1 -1;
#X obj 0 8 bng 15 250 50 0 empty empty empty 17 7 0 10 -262144 -1 -1
;
#X obj 0 -17 r \$0-resetbody;
#X obj -6 187 bng 15 250 50 0 empty empty empty 17 7 0 10 -262144 -1
-1;
#X obj -6 162 r \$0-resetlarynx;
#X obj 92 210 s \$0-quant;
#X msg 92 187 1000;
#X obj 92 303 s \$0-amd;
#X msg 92 280 1;
#X obj 93 350 s \$0-asp;
#X msg 93 327 0;
#X obj 92 255 s \$0-pdiff;
#X obj -7 451 bng 15 250 50 0 empty empty empty 17 7 0 10 -262144 -1
-1;
#X obj -7 426 r \$0-resetvt;
#X obj 91 524 s \$0-mco;
#X msg 91 501 0;
#X msg 91 548 1;
#X obj 91 571 s \$0-dmc;
#X obj 90 476 s \$0-umf;
#X msg 92 233 1;
#X msg 90 453 0;
#X obj -10 671 bng 15 250 50 0 empty empty empty 17 7 0 10 -262144
-1 -1;
#X obj -10 646 r \$0-resetemo;
#X obj 88 694 s \$0-arous;
#X msg 88 671 1;
#X msg 88 718 0;
#X obj 88 741 s \$0-val;
#X obj -12 788 bng 15 250 50 0 empty empty empty 17 7 0 10 -262144
-1 -1;
#X msg 86 835 0;
#X obj -12 763 r \$0-resetpp;
#X msg 86 788 0;
#X obj 86 811 s \$0-ringmod;
#X obj 86 858 s \$0-delay;
#X msg 89 110 0;
#X obj 89 133 s \$0-stype;
#X obj 89 84 s \$0-btype;
#X msg 86 882 0;
#X obj 86 905 s \$0-samp;
#X msg 91 596 0;
#X msg 92 375 0;
#X obj 92 398 s \$0-randmf;
#X obj 91 620 s \$0-randbsr;
#X obj 159 133 s \$0-anim;
#X msg -48 51 0;
#X obj -48 81 s \$0-reclink;
#X msg 160 59 1;
#X obj 219 84 s \$0-frm;
#X obj 278 84 s \$0-vtlm;
#X obj 160 84 s \$0-mfm;
#X msg 159 110 0;
#X connect 0 0 41 0;
#X connect 1 0 2 0;
#X connect 3 0 5 0;
#X connect 4 0 6 0;
#X connect 6 0 7 0;
#X connect 6 0 9 0;
#X connect 6 0 18 0;
#X connect 6 0 27 0;
#X connect 6 0 33 0;
#X connect 6 0 49 0;
#X connect 7 0 1 0;
#X connect 7 0 0 0;
#X connect 7 0 39 0;
#X connect 7 0 51 0;
#X connect 7 0 55 0;
#X connect 8 0 7 0;
#X connect 9 0 12 0;
#X connect 9 0 14 0;
#X connect 9 0 16 0;
#X connect 9 0 25 0;
#X connect 9 0 45 0;
#X connect 10 0 9 0;
#X connect 12 0 11 0;
#X connect 14 0 13 0;
#X connect 16 0 15 0;
#X connect 18 0 21 0;
#X connect 18 0 22 0;
#X connect 18 0 26 0;
#X connect 18 0 44 0;
#X connect 19 0 18 0;
#X connect 21 0 20 0;
#X connect 22 0 23 0;
#X connect 25 0 17 0;
#X connect 26 0 24 0;
#X connect 27 0 30 0;
#X connect 27 0 31 0;
#X connect 28 0 27 0;
#X connect 30 0 29 0;
#X connect 31 0 32 0;
#X connect 33 0 36 0;
#X connect 33 0 34 0;
#X connect 33 0 42 0;
#X connect 34 0 38 0;
#X connect 35 0 33 0;
#X connect 36 0 37 0;
#X connect 39 0 40 0;
#X connect 42 0 43 0;
#X connect 44 0 47 0;
#X connect 45 0 46 0;
#X connect 49 0 50 0;
#X connect 51 0 52 0;
#X connect 51 0 53 0;
#X connect 51 0 54 0;
#X connect 55 0 48 0;
#X restore 631 13 pd initialise;
#X obj 1 352 cnv 15 200 127 empty empty Presets 5 12 0 14 -204786 -66577
0;
#X obj 102 379 vradio 15 1 0 6 \$0-stype \$0-stype empty 0 -8 0 10
-262144 -1 -1 0;
#X obj 202 41 cnv 15 197 80 empty empty Lungs 5 12 0 14 -261682 -66577
0;
#X obj 202 122 cnv 15 197 210 empty empty Larynx 5 12 0 14 -261234
-66577 0;
#X obj 202 333 cnv 15 197 146 empty empty Vocal_Tract 5 12 0 14 -262130
-66577 0;
#X obj 400 41 cnv 15 199 80 empty empty Emotion 5 12 0 14 -203904 -66577
0;
#X obj 400 122 cnv 15 199 207 empty empty Post_Processing 5 12 0 14
-232576 -66577 0;
#X obj 219 301 hsl 128 16 0 1 0 0 \$0-asp \$0-asp aspiration 0 8 0
10 -262144 -1 -1 0 1;
#X obj 219 259 hsl 128 16 0 1 0 0 \$0-amd \$0-amd AM_depth 0 8 0 10
-262144 -1 -1 12700 1;
#X obj 219 238 hsl 128 16 0 1 0 0 \$0-fmd \$0-fmd FM_depth 0 8 0 10
-262144 -1 -1 3810 1;
#X obj 219 217 hsl 128 16 0 20 0 0 \$0-mf \$0-mf modulation_frequency
0 8 0 10 -262144 -1 -1 6899 1;
#X obj 219 154 hsl 128 16 30 3000 0 0 \$0-ff \$0-ff fundamental_frequency
0 8 0 10 -262144 -1 -1 3112 1;
#X obj 219 280 hsl 128 16 1 10 0 0 \$0-vq \$0-vq voice_quality 0 8
0 10 -262144 -1 -1 2822 1;
#X floatatom 354 154 5 0 0 0 - #0-ff -;
#X floatatom 354 217 5 0 0 0 - #0-mf -;
#X floatatom 354 238 5 0 0 0 - #0-fmd -;
#X floatatom 354 259 5 0 0 0 - #0-amd -;
#X floatatom 354 280 5 0 0 0 - #0-vq -;
#X floatatom 354 301 5 0 0 0 - #0-asp -;
#X obj 217 388 hsl 128 16 1 50 0 0 \$0-vtl \$0-vtl vocal_tract_length
0 8 0 10 -262144 -1 -1 1457 1;
#X obj 217 409 hsl 128 16 0 1 0 0 \$0-mco \$0-mco mouth_close/open
0 8 0 10 -262144 -1 -1 0 1;
#X obj 217 430 hsl 128 16 0 20 0 0 \$0-sr \$0-sr syllabic_rate 0 8
0 10 -262144 -1 -1 3899 1;
#X obj 217 451 hsl 128 16 0 1 0 0 \$0-dmc \$0-dmc degree_of_closure
0 8 0 10 -262144 -1 -1 12700 1;
#X floatatom 352 388 5 0 0 0 - #0-vtl -;
#X floatatom 352 409 5 0 0 0 - #0-mco -;
#X floatatom 352 430 5 0 0 0 - #0-sr -;
#X floatatom 352 451 5 0 0 0 - #0-dmc -;
#X obj 377 129 bng 15 250 50 0 \$0-resetlarynx empty empty 17 7 0 10
-260097 -1 -1;
#X obj 178 125 bng 15 250 50 0 \$0-resetbody empty empty 17 7 0 10
-260097 -1 -1;
#X obj 219 175 hsl 128 16 1 1000 1 0 \$0-quant \$0-quant pitch_quantisation
0 8 0 10 -262144 -1 -1 12700 1;
#X floatatom 354 175 5 0 0 0 - #0-quant -;
#X obj 219 196 hsl 128 16 1 1.5 1 0 \$0-pdiff \$0-pdiff pitch_difference
0 8 0 10 -262144 -1 -1 0 1;
#X floatatom 354 196 5 0 0 0 - #0-pdiff -;
#X obj 376 340 bng 15 250 50 0 \$0-resetvt empty empty 17 7 0 10 -260097
-1 -1;
#X obj 217 367 hsl 128 16 0 100 0 0 \$0-umf \$0-umf uvula_fequency
0 8 0 10 -262144 -1 -1 0 1;
#X floatatom 352 367 5 0 0 0 - #0-umf -;
#X obj 215 71 hsl 128 16 0.1 1000 1 0 \$0-lc \$0-lc lung_capacity 0
8 0 10 -262144 -1 -1 151 1;
#X floatatom 350 71 5 0 0 0 - #0-lc -;
#X obj 215 92 hsl 128 16 0.005 500 1 0 \$0-fr \$0-fr flow_rate 0 8
0 10 -262144 -1 -1 4574 1;
#X floatatom 350 92 5 0 0 0 - #0-fr -;
#X text 647 225 <= vocalise;
#N canvas 1324 82 356 505 sound-type 0;
#X obj 24 432 s \$0-asp;
#X obj 70 384 s \$0-mco;
#X obj 93 361 s \$0-dmc;
#X obj 47 408 s \$0-umf;
#X floatatom 24 19 5 0 0 0 - - -;
#X obj 24 -10 r \$0-stype;
#X text 18 -31 sound type;
#X obj 24 47 route 0 1 2 3 4 5;
#X obj 73 222 s \$0-mf;
#X msg 73 197 7;
#X text 89 75 <= vocalise;
#X text 127 106 <= breathe;
#X text 152 134 <= snore;
#X text 193 221 <= laugh/cry;
#X text 186 249 <= sneeze;
#X text 216 282 <= cough;
#X obj 24 313 unpack 1 2 3 4 5;
#X obj 117 338 s \$0-frm;
#X msg 106 283 0.25 0 0.3 0.6 25;
#X msg 90 250 1 0 0.3 0.6 25;
#X msg 57 137 1 70 0.3 0.3 1;
#X msg 40 108 1 0 0.3 0.6 1;
#X msg 24 77 0 0 0 1 1;
#X msg 129 196 1;
#X obj 130 222 s \$0-frm;
#X obj 73 167 t b b;
#X connect 4 0 7 0;
#X connect 5 0 4 0;
#X connect 7 0 22 0;
#X connect 7 1 21 0;
#X connect 7 2 20 0;
#X connect 7 3 25 0;
#X connect 7 4 19 0;
#X connect 7 5 18 0;
#X connect 9 0 8 0;
#X connect 16 0 0 0;
#X connect 16 1 3 0;
#X connect 16 2 1 0;
#X connect 16 3 2 0;
#X connect 16 4 17 0;
#X connect 18 0 16 0;
#X connect 19 0 16 0;
#X connect 20 0 16 0;
#X connect 21 0 16 0;
#X connect 22 0 16 0;
#X connect 23 0 24 0;
#X connect 25 0 9 0;
#X connect 25 1 23 0;
#X restore 631 87 pd sound-type;
#X obj 418 71 hsl 128 16 0.7 7 1 0 \$0-arous \$0-arous arousal 0 8
0 10 -262144 -1 -1 1967 1;
#X obj 418 92 hsl 128 16 -1 1 0 0 \$0-val \$0-val valence 0 8 0 10
-262144 -1 -1 6350 1;
#X floatatom 553 71 5 0 0 0 - #0-arous -;
#X floatatom 553 92 5 0 0 0 - #0-val -;
#X obj 577 48 bng 15 250 50 0 \$0-resetemo empty empty 17 7 0 10 -260097
-1 -1;
#N canvas 1136 85 407 244 emotion 0;
#X floatatom 15 39 5 0 0 0 - - -;
#X floatatom 15 129 5 0 0 0 - - -;
#X floatatom 90 130 5 0 0 0 - - -;
#X obj 90 104 + 3;
#X obj 90 79 * -2;
#X floatatom 151 131 5 0 0 0 - - -;
#X obj 151 80 / 40;
#X obj 151 105 + 1.225;
#X obj 15 78 * 0.25;
#X obj 15 103 + 0.3;
#X obj 90 159 s \$0-vq;
#X obj 15 155 s \$0-fmd;
#X obj 151 203 s \$0-pdiff;
#X obj 15 13 r \$0-val;
#X floatatom 281 42 5 0 0 0 - - -;
#X obj 267 134 *;
#X obj 330 130 *;
#X obj 345 106 t b f;
#X obj 330 158 s \$0-sr;
#X obj 267 158 s \$0-fr;
#X obj 267 77 r \$0-bfr;
#X obj 282 106 t b f;
#X obj 330 78 r \$0-bsr;
#X obj 281 13 r \$0-arous;
#X obj 184 130 r \$0-btype;
#X obj 184 154 tgl 15 0 empty empty empty 17 7 0 10 -262144 -1 -1 0
1;
#X obj 151 177 spigot;
#X connect 0 0 4 0;
#X connect 0 0 6 0;
#X connect 0 0 8 0;
#X connect 1 0 11 0;
#X connect 2 0 10 0;
#X connect 3 0 2 0;
#X connect 4 0 3 0;
#X connect 5 0 26 0;
#X connect 6 0 7 0;
#X connect 7 0 5 0;
#X connect 8 0 9 0;
#X connect 9 0 1 0;
#X connect 13 0 0 0;
#X connect 14 0 17 0;
#X connect 14 0 21 0;
#X connect 15 0 19 0;
#X connect 16 0 18 0;
#X connect 17 0 16 0;
#X connect 17 1 16 1;
#X connect 20 0 15 0;
#X connect 21 0 15 0;
#X connect 21 1 15 1;
#X connect 22 0 16 0;
#X connect 23 0 14 0;
#X connect 24 0 25 0;
#X connect 25 0 26 1;
#X connect 26 0 12 0;
#X restore 631 113 pd emotion;
#X obj 1 41 cnv 15 200 80 empty empty empty 5 12 0 14 -228856 -66577
0;
#X obj 12 53 bng 15 250 50 0 \$0-vocalise empty empty 17 7 0 10 -4034
-1 -1;
#X text 33 51 <= VOCALISE;
#X obj 627 196 r \$0-vocalise;
#X obj 416 155 hsl 128 16 0 100 0 0 \$0-ringmod \$0-ringmod ring_modulation
0 8 0 10 -262144 -1 -1 0 1;
#X obj 416 176 hsl 128 16 0 100 0 0 \$0-delay \$0-delay delay_line
0 8 0 10 -262144 -1 -1 0 1;
#X floatatom 551 155 5 0 0 0 - #0-ringmod -;
#X floatatom 551 176 5 0 0 0 - #0-delay -;
#X obj 577 127 bng 15 250 50 0 \$0-resetpp empty empty 17 7 0 10 -260097
-1 -1;
#X obj 577 13 bng 15 250 50 0 \$0-init empty empty 17 7 0 10 -260097
-1 -1;
#X text 496 11 reset all =>;
#X obj 424 273 output~;
#X obj 77 306 vradio 15 1 0 2 \$0-btype \$0-btype empty 0 -8 0 10 -262144
-1 -1 0;
#X text 97 319 <= robot;
#X text 97 304 <= animal;
#X text 122 422 <= laugh/cry;
#X text 498 287 <= audio out;
#X obj 443 204 vradio 15 1 0 4 \$0-samp \$0-samp empty 0 -8 0 10 -262144
-1 -1 0;
#X text 465 246 <= 5512 Hz;
#X text 465 232 <= 11025 Hz;
#X text 465 217 <= 22050 Hz;
#X text 465 202 <= 44100 Hz;
#X obj 504 305 r~ soundout;
#X obj 627 384 s~ soundout;
#N canvas 1319 216 216 357 random 0;
#X obj 107 144 random 1000;
#X obj 55 38 bng 15 250 50 0 empty empty empty 17 7 0 10 -262144 -1
-1;
#X msg 76 38 stop;
#X obj 106 116 bng 15 250 50 0 empty empty empty 17 7 0 10 -262144
-1 -1;
#X floatatom 107 203 5 0 0 0 - - -;
#X obj 107 174 / 500;
#X obj 108 271 spigot;
#X obj 141 251 tgl 15 0 empty \$0-randbsr empty 17 7 0 10 -262144 -1
-1 0 1;
#X obj 17 143 random 1000;
#X obj 16 115 bng 15 250 50 0 empty empty empty 17 7 0 10 -262144 -1
-1;
#X floatatom 17 202 5 0 0 0 - - -;
#X obj 17 173 / 500;
#X obj 18 270 spigot;
#X obj 51 250 tgl 15 0 empty \$0-randmf empty 17 7 0 10 -262144 -1
-1 0 1;
#X obj 15 84 metro 200;
#X obj 105 85 metro 500;
#X obj 18 297 s \$0-mf;
#X obj 108 296 s \$0-bsr;
#X obj 55 12 r \$0-init;
#X connect 0 0 5 0;
#X connect 1 0 14 0;
#X connect 1 0 15 0;
#X connect 2 0 14 0;
#X connect 2 0 15 0;
#X connect 3 0 0 0;
#X connect 4 0 6 0;
#X connect 5 0 4 0;
#X connect 6 0 17 0;
#X connect 7 0 6 1;
#X connect 8 0 11 0;
#X connect 9 0 8 0;
#X connect 10 0 12 0;
#X connect 11 0 10 0;
#X connect 12 0 16 0;
#X connect 13 0 12 1;
#X connect 14 0 9 0;
#X connect 15 0 3 0;
#X connect 18 0 1 0;
#X restore 631 139 pd random;
#X obj 25 80 tgl 15 0 \$0-randmf \$0-randmf empty 17 7 0 10 -262144
-1 -1 0 1;
#X obj 25 95 tgl 15 0 \$0-randbsr \$0-randbsr empty 17 7 0 10 -262144
-1 -1 0 1;
#X text 44 79 <= ramdomise pitch;
#X text 44 94 <= ramdomise syllables;
#X obj 11 379 vradio 15 1 0 6 \$0-anim \$0-anim empty 0 -8 0 10 -262144
-1 -1 0;
#X text 31 392 <= cow;
#X text 31 407 <= sheep;
#X text 31 422 <= dog;
#X text 31 437 <= cat;
#X text 31 451 <= rat;
#N canvas 762 161 609 700 animal 0;
#X floatatom -28 33 5 0 0 0 - - -;
#X text -23 -16 animal;
#X obj -28 4 r \$0-anim;
#X obj -28 61 route 0 1 2 3 4 5;
#X obj 21 281 bng 15 250 50 0 empty empty empty 17 7 0 10 -262144 -1
-1;
#X obj 21 334 s \$0-frm;
#X msg 21 308 80;
#X obj 141 334 s \$0-fmd;
#X msg 141 307 0.7;
#X obj 261 333 s \$0-vq;
#X msg 261 308 5;
#X obj 388 334 s \$0-mco;
#X msg 389 308 0.5;
#X text 48 276 <= dog;
#X obj 449 333 s \$0-bm;
#X msg 450 307 30;
#X obj -12 474 bng 15 250 50 0 empty empty empty 17 7 0 10 -262144
-1 -1;
#X obj -12 527 s \$0-frm;
#X obj 108 527 s \$0-fmd;
#X obj 227 526 s \$0-vq;
#X obj 354 527 s \$0-mco;
#X obj 415 526 s \$0-bm;
#X text 15 469 <= cow;
#X msg -12 501 12;
#X msg 108 500 0.1;
#X msg 227 501 7;
#X msg 355 501 1;
#X msg 416 500 900;
#X obj 168 526 s \$0-amd;
#X msg 168 499 0;
#X obj 199 333 s \$0-amd;
#X msg 199 306 1;
#X obj 39 190 bng 15 250 50 0 empty empty empty 17 7 0 10 -262144 -1
-1;
#X obj 39 243 s \$0-frm;
#X obj 159 243 s \$0-fmd;
#X obj 278 242 s \$0-vq;
#X obj 405 243 s \$0-mco;
#X obj 466 242 s \$0-bm;
#X msg 159 216 0.1;
#X msg 278 217 7;
#X obj 219 242 s \$0-amd;
#X msg 219 215 0;
#X text 66 185 <= cat;
#X msg 467 216 20;
#X msg 39 217 3.75;
#X msg 406 217 0;
#X msg 280 500 1;
#X obj 330 242 s \$0-vtlm;
#X obj 279 526 s \$0-vtlm;
#X obj 313 333 s \$0-vtlm;
#X msg 314 307 1;
#X msg 331 216 0.275;
#X obj 5 377 bng 15 250 50 0 empty empty empty 17 7 0 10 -262144 -1
-1;
#X obj 5 430 s \$0-frm;
#X obj 125 430 s \$0-fmd;
#X obj 244 429 s \$0-vq;
#X obj 371 430 s \$0-mco;
#X obj 432 429 s \$0-bm;
#X obj 185 429 s \$0-amd;
#X msg 297 403 1;
#X obj 296 429 s \$0-vtlm;
#X text 31 372 <= sheep;
#X msg 433 403 72;
#X msg 5 404 16;
#X msg 125 403 0.7;
#X msg 185 402 1;
#X msg 244 404 10;
#X msg 372 404 0.5;
#X msg 66 403 10;
#X msg 100 216 1;
#X msg 49 500 1;
#X msg 82 307 1;
#X obj 82 334 s \$0-mfm;
#X obj 49 527 s \$0-mfm;
#X obj 100 243 s \$0-mfm;
#X obj 66 430 s \$0-mfm;
#X obj 55 99 bng 15 250 50 0 empty empty empty 17 7 0 10 -262144 -1
-1;
#X obj 55 152 s \$0-frm;
#X obj 175 152 s \$0-fmd;
#X obj 294 151 s \$0-vq;
#X obj 421 152 s \$0-mco;
#X obj 482 151 s \$0-bm;
#X obj 235 151 s \$0-amd;
#X obj 346 151 s \$0-vtlm;
#X obj 116 152 s \$0-mfm;
#X text 81 94 <= rat;
#X msg 483 125 0.2;
#X msg 116 125 2;
#X msg 175 125 0.3;
#X msg 235 124 0;
#X msg 294 126 1;
#X msg 422 126 1;
#X msg 55 126 10;
#X msg 347 125 1;
#X obj -28 567 bng 15 250 50 0 empty empty empty 17 7 0 10 -262144
-1 -1;
#X obj -28 620 s \$0-frm;
#X obj 92 620 s \$0-fmd;
#X obj 212 619 s \$0-vq;
#X obj 339 620 s \$0-mco;
#X obj 400 619 s \$0-bm;
#X obj 150 619 s \$0-amd;
#X msg 150 592 1;
#X obj 264 619 s \$0-vtlm;
#X msg 265 593 1;
#X msg 33 593 1;
#X obj 33 620 s \$0-mfm;
#X text -1 562 <= default;
#X msg 401 593 2;
#X msg -28 594 1;
#X msg 92 593 0.3;
#X msg 212 594 3;
#X msg 340 594 0;
#X connect 0 0 3 0;
#X connect 2 0 0 0;
#X connect 3 0 94 0;
#X connect 3 1 16 0;
#X connect 3 2 52 0;
#X connect 3 3 4 0;
#X connect 3 4 32 0;
#X connect 3 5 76 0;
#X connect 4 0 6 0;
#X connect 4 0 8 0;
#X connect 4 0 10 0;
#X connect 4 0 12 0;
#X connect 4 0 15 0;
#X connect 4 0 31 0;
#X connect 4 0 50 0;
#X connect 4 0 71 0;
#X connect 6 0 5 0;
#X connect 8 0 7 0;
#X connect 10 0 9 0;
#X connect 12 0 11 0;
#X connect 15 0 14 0;
#X connect 16 0 23 0;
#X connect 16 0 24 0;
#X connect 16 0 25 0;
#X connect 16 0 26 0;
#X connect 16 0 27 0;
#X connect 16 0 29 0;
#X connect 16 0 46 0;
#X connect 16 0 70 0;
#X connect 23 0 17 0;
#X connect 24 0 18 0;
#X connect 25 0 19 0;
#X connect 26 0 20 0;
#X connect 27 0 21 0;
#X connect 29 0 28 0;
#X connect 31 0 30 0;
#X connect 32 0 44 0;
#X connect 32 0 38 0;
#X connect 32 0 39 0;
#X connect 32 0 45 0;
#X connect 32 0 43 0;
#X connect 32 0 41 0;
#X connect 32 0 51 0;
#X connect 32 0 69 0;
#X connect 38 0 34 0;
#X connect 39 0 35 0;
#X connect 41 0 40 0;
#X connect 43 0 37 0;
#X connect 44 0 33 0;
#X connect 45 0 36 0;
#X connect 46 0 48 0;
#X connect 50 0 49 0;
#X connect 51 0 47 0;
#X connect 52 0 63 0;
#X connect 52 0 64 0;
#X connect 52 0 66 0;
#X connect 52 0 67 0;
#X connect 52 0 62 0;
#X connect 52 0 65 0;
#X connect 52 0 59 0;
#X connect 52 0 68 0;
#X connect 59 0 60 0;
#X connect 62 0 57 0;
#X connect 63 0 53 0;
#X connect 64 0 54 0;
#X connect 65 0 58 0;
#X connect 66 0 55 0;
#X connect 67 0 56 0;
#X connect 68 0 75 0;
#X connect 69 0 74 0;
#X connect 70 0 73 0;
#X connect 71 0 72 0;
#X connect 76 0 92 0;
#X connect 76 0 88 0;
#X connect 76 0 90 0;
#X connect 76 0 91 0;
#X connect 76 0 86 0;
#X connect 76 0 89 0;
#X connect 76 0 93 0;
#X connect 76 0 87 0;
#X connect 86 0 81 0;
#X connect 87 0 84 0;
#X connect 88 0 78 0;
#X connect 89 0 82 0;
#X connect 90 0 79 0;
#X connect 91 0 80 0;
#X connect 92 0 77 0;
#X connect 93 0 83 0;
#X connect 94 0 108 0;
#X connect 94 0 109 0;
#X connect 94 0 110 0;
#X connect 94 0 111 0;
#X connect 94 0 107 0;
#X connect 94 0 101 0;
#X connect 94 0 103 0;
#X connect 94 0 104 0;
#X connect 101 0 100 0;
#X connect 103 0 102 0;
#X connect 104 0 105 0;
#X connect 107 0 99 0;
#X connect 108 0 95 0;
#X connect 109 0 96 0;
#X connect 110 0 97 0;
#X connect 111 0 98 0;
#X restore 631 62 pd animal;
#X text 31 378 <= default;
#X text 122 377 <= normal;
#X text 122 392 <= breath;
#X text 122 407 <= snore;
#X text 122 437 <= sneeze;
#X text 122 451 <= cough;
#X obj 111 54 tgl 15 0 \$0-reclink \$0-reclink empty 17 7 0 10 -262144
-1 -1 0 1;
#X text 129 52 <= REC link;
#X obj 769 233 tgl 15 0 empty \$0-reclink empty 17 7 0 10 -262144 -1
-1 0 1;
#X obj 736 257 spigot;
#X msg 736 286 0;
#X obj 736 316 s \$0-reclink;
#X connect 0 0 1 0;
#X connect 1 0 2 0;
#X connect 2 0 6 0;
#X connect 4 0 0 0;
#X connect 4 0 114 0;
#X connect 6 0 92 0;
#X connect 72 0 4 0;
#X connect 91 0 80 1;
#X connect 91 0 80 0;
#X connect 91 0 5 0;
#X connect 113 0 114 1;
#X connect 114 0 5 1;
#X connect 114 0 115 0;
#X connect 115 0 116 0;
#X coords 0 -1 1 1 600 480 2 0 0;
#X restore -105 -53 pd main;
