#N canvas 1057 118 506 405 10;
#X obj 333 123 soundfiler;
#N canvas 0 22 450 300 (subpatch) 0;
#X array sound2 44100 float 2;
#X coords 0 1 44100 -1 200 50 1;
#X restore 10 100 graph;
#X obj 333 71 savepanel;
#X msg 333 95 write -wave \$1 sound;
#X obj 231 72 tabplay~ sound;
#X obj 97 31 bng 15 250 50 0 empty empty empty 17 7 0 10 -4034 -1 -1
;
#X obj 44 52 output~;
#X obj 229 132 tabwrite~ sound;
#X obj 37 31 bng 15 250 50 0 empty empty empty 17 7 0 10 -258113 -1
-1;
#X obj 161 31 bng 15 250 50 0 empty empty empty 17 7 0 10 -4032 -1
-1;
#X obj 229 99 inlet~;
#X text 27 15 RECORD;
#X text 81 15 PLAYBACK;
#X text 154 15 SAVE;
#X obj 337 32 inlet;
#X obj 130 50 vradio 15 1 0 3 empty empty empty 0 -8 0 10 -257985 -1
-1 0;
#X obj 50 305 * 44100;
#X msg 50 334 \; sound resize \$1;
#X obj 50 250 pow;
#X obj 50 195 t b f;
#X floatatom 50 278 5 0 0 0 - - -;
#X msg 50 222 10;
#X msg 219 208 0;
#X obj 219 180 loadbang;
#X text 148 78 100s;
#X text 148 63 10s;
#X text 148 48 1s;
#N canvas 0 22 450 300 (subpatch) 0;
#X array sound 44100 float 2;
#X coords 0 1 44100 -1 200 50 1;
#X restore 286 226 graph;
#X msg 157 334 \; sound2 resize \$1;
#X obj 291 178 tabwrite~ sound2;
#X obj 291 154 clip~ -1 1;
#X connect 2 0 3 0;
#X connect 3 0 0 0;
#X connect 4 0 6 0;
#X connect 4 0 6 1;
#X connect 5 0 4 0;
#X connect 8 0 7 0;
#X connect 8 0 29 0;
#X connect 9 0 2 0;
#X connect 10 0 7 0;
#X connect 10 0 30 0;
#X connect 14 0 8 0;
#X connect 15 0 19 0;
#X connect 16 0 17 0;
#X connect 16 0 28 0;
#X connect 18 0 20 0;
#X connect 19 0 21 0;
#X connect 19 1 18 1;
#X connect 20 0 16 0;
#X connect 21 0 18 0;
#X connect 22 0 15 0;
#X connect 23 0 22 0;
#X connect 30 0 29 0;
#X coords 0 -1 1 1 200 150 1 10 0;
